<?xml version="1.0" encoding="UTF-8" standalone="no"?><!DOCTYPE svg PUBLIC "-//W3C//DTD SVG 1.1//EN" "http://www.w3.org/Graphics/SVG/1.1/DTD/svg11.dtd"><svg width="100%" height="100%" viewBox="0 0 507 509" version="1.1" xmlns="http://www.w3.org/2000/svg" xmlns:xlink="http://www.w3.org/1999/xlink" xml:space="preserve" xmlns:serif="http://www.serif.com/" style="fill-rule:evenodd;clip-rule:evenodd;stroke-linejoin:round;stroke-miterlimit:2;"><path d="M253.484,212.5c22.997,0 41.667,18.67 41.667,41.667c-0,22.996 -18.67,41.666 -41.667,41.666c-22.996,0 -41.666,-18.67 -41.666,-41.666c-0,-22.997 18.67,-41.667 41.666,-41.667Zm-72.633,22.917l-180.851,-0c9.61,-131.538 119.512,-235.417 253.484,-235.417c133.973,-0 243.874,103.879 253.484,235.417l-180.851,-0c-8.334,-32.333 -37.713,-56.25 -72.633,-56.25c-34.92,-0 -64.298,23.917 -72.633,56.25Zm145.266,37.5l180.851,-0c-9.61,131.537 -119.511,235.416 -253.484,235.416c-133.972,0 -243.874,-103.879 -253.484,-235.416l180.851,-0c8.335,32.333 37.713,56.25 72.633,56.25c34.92,-0 64.299,-23.917 72.633,-56.25Z" style="fill:#fff;"/></svg>